# xmcd
#
# Track frame offsets:
#	150
#	11861
#	23258
#	31423
#	41620
#	50496
#	60873
#	69431
#	78652
#	90329
#	99002
#	109413
#	118820
#	130091
#	140326
#	150932
#	159835
#	170135
#	179186
#	186711
#	196045
#	205051
#	215302
#	227718
#	240094
#	250690
#	259958
#	271453
#	280606
#	292874
#	302417
#
# Disc length: 4162 seconds
# Revision: 1
# Processed by: cddbd v1.5.2PL0 Copyright (c) Steve Scherf et al.
# Submitted via: dBpowerAMP V12.0
#
DISCID=9c10401f
DTITLE=Various Artist - The Other Side of Bakersfield, Vol. 2 - 1950s and 60s Boppers and Rockers From 'Nashville West'
DYEAR=2014
DGENRE=Country
TTITLE0=Ferlin Husky - I Feel Better All Over
TTITLE1=Dusty Payne - My Walkin' Shoes
TTITLE2=Fuzzy Owen - Yer Fer Me
TTITLE3=Corky Jones (Buck Owen) - Rhythm And Booze
TTITLE4=Terry Fell - What's Good For The Goose
TTITLE5=The Farmer Boys - Somehow, Someway, Someday
TTITLE6=Bob Ehret - Stop The Clock
TTITLE7=Billy Woods - Phone Me Baby
TTITLE8=Cliff Crofford - Teenage Tears
TTITLE9=Bill Carter - I Wanna Feel Good
TTITLE10=Lynn Billingsley - Childhood Boogie
TTITLE11=Joe Carson - Take Me In Your Arms
TTITLE12=Billy Mize - Planet Named Desire
TTITLE13=The Three Notes - I've Been Thinking It Over
TTITLE14=Wally Lewis - Kathleen 
TTITLE15=Al Hendrix - Rhonda Lee
TTITLE16=Abe Mulkey - Packed Up And Shoved Off
TTITLE17=George Weston - Her Little Car Hop
TTITLE18=Johnny Bond - Three Or Four Nights
TTITLE19=Dallas Frazier - Can't Go On
TTITLE20=Larry Bryant - I Remember
TTITLE21=Herb Henson - Goodbye, Baby, Goodbye
TTITLE22=Lawton Giles - That's What I Get For Loving You
TTITLE23=Mel and Carl - Come On Home
TTITLE24=Bill Bryan and The Goldtones - Rocking Chair
TTITLE25=J.R. LaRue and The Goldtones - I Know Better
TTITLE26=Billy Bledsoe - That's Just Where (I Oughtta Be)
TTITLE27=Grover Cleveland - Why Not
TTITLE28=Del and Sue - Just Before Dawn
TTITLE29=Tommy Duncan with Larry Thornton - I'll Be There Next Sunday
TTITLE30=Cathy Sharpe - North Pole Rock
EXTD=
EXTT0=
EXTT1=
EXTT2=
EXTT3=
EXTT4=
EXTT5=
EXTT6=
EXTT7=
EXTT8=
EXTT9=
EXTT10=
EXTT11=
EXTT12=
EXTT13=
EXTT14=
EXTT15=
EXTT16=
EXTT17=
EXTT18=
EXTT19=
EXTT20=
EXTT21=
EXTT22=
EXTT23=
EXTT24=
EXTT25=
EXTT26=
EXTT27=
EXTT28=
EXTT29=
EXTT30=
PLAYORDER=
